<?xml version="1.0" encoding="UTF-8" standalone="no"?>
<!DOCTYPE svg PUBLIC "-//W3C//DTD SVG 1.1//EN"
 "http://www.w3.org/Graphics/SVG/1.1/DTD/svg11.dtd">
<!-- Generated by graphviz version 2.40.1 (20161225.0304)
 -->
<!-- Title: models_diagram Pages: 1 -->
<svg width="281pt" height="248pt"
 viewBox="0.00 0.00 281.00 248.00" xmlns="http://www.w3.org/2000/svg" xmlns:xlink="http://www.w3.org/1999/xlink">
<g id="graph0" class="graph" transform="scale(1 1) rotate(0) translate(36 212)">
<title>models_diagram</title>
<polygon fill="#ffffff" stroke="transparent" points="-36,36 -36,-212 245,-212 245,36 -36,36"/>
<!-- user -->
<g id="node1" class="node">
<title>user</title>
<polygon fill="#add8e6" stroke="transparent" points="126.5,-138 126.5,-160 209.5,-160 209.5,-138 126.5,-138"/>
<polygon fill="none" stroke="#000000" points="126.5,-138 126.5,-160 209.5,-160 209.5,-138 126.5,-138"/>
<text text-anchor="start" x="159.6715" y="-147" font-family="Times,serif" font-weight="bold" font-size="10.00" fill="#000000">user</text>
<polygon fill="none" stroke="#000000" points="126.5,-116 126.5,-138 209.5,-138 209.5,-116 126.5,-116"/>
<text text-anchor="start" x="131.5" y="-125" font-family="Times,serif" text-decoration="underline" font-size="10.00" fill="#000000">id</text>
<text text-anchor="start" x="139.279" y="-125" font-family="Times,serif" font-size="10.00" fill="#000000">: NUMBER</text>
<polygon fill="none" stroke="#000000" points="126.5,-94 126.5,-116 209.5,-116 209.5,-94 126.5,-94"/>
<text text-anchor="start" x="131.5" y="-102" font-family="Times,serif" font-size="10.00" fill="#000000">name: STRING</text>
<polygon fill="none" stroke="#000000" points="126.5,-72 126.5,-94 209.5,-94 209.5,-72 126.5,-72"/>
<text text-anchor="start" x="131.5" y="-80" font-family="Times,serif" font-size="10.00" fill="#000000">email: STRING</text>
<polygon fill="none" stroke="#000000" points="126.5,-50 126.5,-72 209.5,-72 209.5,-50 126.5,-50"/>
<text text-anchor="start" x="131.5" y="-58" font-family="Times,serif" font-size="10.00" fill="#000000">createdAt: DATE</text>
<polygon fill="none" stroke="#000000" points="126.5,-28 126.5,-50 209.5,-50 209.5,-28 126.5,-28"/>
<text text-anchor="start" x="131.205" y="-36" font-family="Times,serif" font-size="10.00" fill="#000000">updatedAt: DATE</text>
</g>
<!-- product -->
<g id="node2" class="node">
<title>product</title>
<polygon fill="#add8e6" stroke="transparent" points=".5,-154 .5,-176 95.5,-176 95.5,-154 .5,-154"/>
<polygon fill="none" stroke="#000000" points=".5,-154 .5,-176 95.5,-176 95.5,-154 .5,-154"/>
<text text-anchor="start" x="32.7265" y="-163" font-family="Times,serif" font-weight="bold" font-size="10.00" fill="#000000">product</text>
<polygon fill="none" stroke="#000000" points=".5,-132 .5,-154 95.5,-154 95.5,-132 .5,-132"/>
<text text-anchor="start" x="5.5" y="-141" font-family="Times,serif" text-decoration="underline" font-size="10.00" fill="#000000">id</text>
<text text-anchor="start" x="13.279" y="-141" font-family="Times,serif" font-size="10.00" fill="#000000">: NUMBER</text>
<polygon fill="none" stroke="#000000" points=".5,-110 .5,-132 95.5,-132 95.5,-110 .5,-110"/>
<text text-anchor="start" x="5.5" y="-118" font-family="Times,serif" font-size="10.00" fill="#000000">title: STRING</text>
<polygon fill="none" stroke="#000000" points=".5,-88 .5,-110 95.5,-110 95.5,-88 .5,-88"/>
<text text-anchor="start" x="5.5" y="-96" font-family="Times,serif" font-size="10.00" fill="#000000">price: NUMBER</text>
<polygon fill="none" stroke="#000000" points=".5,-66 .5,-88 95.5,-88 95.5,-66 .5,-66"/>
<text text-anchor="start" x="5.5" y="-74" font-family="Times,serif" font-size="10.00" fill="#000000">imageUrl: STRING</text>
<polygon fill="none" stroke="#000000" points=".5,-44 .5,-66 95.5,-66 95.5,-44 .5,-44"/>
<text text-anchor="start" x="5.092" y="-52" font-family="Times,serif" font-size="10.00" fill="#000000">description: STRING</text>
<polygon fill="none" stroke="#000000" points=".5,-22 .5,-44 95.5,-44 95.5,-22 .5,-22"/>
<text text-anchor="start" x="5.5" y="-30" font-family="Times,serif" font-size="10.00" fill="#000000">createdAt: DATE</text>
<polygon fill="none" stroke="#000000" points=".5,0 .5,-22 95.5,-22 95.5,0 .5,0"/>
<text text-anchor="start" x="5.5" y="-8" font-family="Times,serif" font-size="10.00" fill="#000000">updatedAt: DATE</text>
</g>
</g>
</svg>
